<svg xmlns="http://www.w3.org/2000/svg" xmlns:xlink="http://www.w3.org/1999/xlink" viewBox="0,0,256,256" width="48px" height="48px"><defs><linearGradient x1="6.968" y1="6.968" x2="36.942" y2="36.942" gradientUnits="userSpaceOnUse" id="color-1"><stop offset="0" stop-color="#0047ff"></stop><stop offset="1" stop-color="#6691ff"></stop></linearGradient><linearGradient x1="33.2" y1="33.2" x2="39.98" y2="39.98" gradientUnits="userSpaceOnUse" id="color-2"><stop offset="0" stop-color="#43e6fc"></stop><stop offset="0.116" stop-color="#f19576"></stop><stop offset="0.595" stop-color="#b38bfa"></stop><stop offset="1" stop-color="#ff79f2"></stop></linearGradient><linearGradient x1="24.595" y1="24.595" x2="33.244" y2="33.244" gradientUnits="userSpaceOnUse" id="color-3"><stop offset="0" stop-color="#4b4b4b"></stop><stop offset="1" stop-color="#3b3b3b"></stop></linearGradient></defs><g transform="translate(-40.96,-40.96) scale(1.32,1.32)"><g fill="none" fill-rule="nonzero" stroke="none" stroke-width="1" stroke-linecap="butt" stroke-linejoin="miter" stroke-miterlimit="10" stroke-dasharray="" stroke-dashoffset="0" font-family="none" font-weight="none" font-size="none" text-anchor="none" style="mix-blend-mode: normal"><g transform="scale(5.33333,5.33333)"><path d="M32,42h-24c-1.105,0 -2,-0.895 -2,-2v-32c0,-1.105 0.895,-2 2,-2h32c1.105,0 2,0.895 2,2v24z" fill="url(#color-1)"></path><path d="M40,42h-16l18,-18v16c0,1.105 -0.895,2 -2,2z" fill="url(#color-2)"></path><path d="M26,24h16l-18,18v-16c0,-1.105 0.895,-2 2,-2z" fill="url(#color-3)"></path></g></g></g></svg>